<svg id="Layer_1" data-name="Layer 1" xmlns="http://www.w3.org/2000/svg" viewBox="0 0 645.45 682.26"><defs><style>.cls-1{fill:#ed6a5a;}</style></defs><title>ai-hack-2020</title><path class="cls-1" d="M499.1,301.44l35.22-.11c6.44,0,6.45-10,0-10l-35.22.11c-6.43,0-6.44,10,0,10Z" transform="translate(-298.58 -111.49)"/><path class="cls-1" d="M665.28,224.6H571.34c-9.72,0-9.73,15.09,0,15.09h93.94c9.71,0,9.73-15.09,0-15.09Z" transform="translate(-298.58 -111.49)"/><path class="cls-1" d="M943,698.56,916,651.8,851.14,539.52l-78.4-135.79L705,286.44c-10.9-18.88-21.21-38.27-32.77-56.76-.16-.26-.3-.54-.46-.8-4.85-8.41-17.9-.82-13,7.62l27,46.76,64.82,112.28L829,531.33l67.72,117.3c10.9,18.87,21.22,38.27,32.77,56.75.16.26.31.54.46.8,4.86,8.41,17.9.82,13-7.62Z" transform="translate(-298.58 -111.49)"/><path class="cls-1" d="M935.92,695H842c-9.71,0-9.73,15.09,0,15.09h93.94c9.72,0,9.73-15.09,0-15.09Z" transform="translate(-298.58 -111.49)"/><path class="cls-1" d="M761.22,545.92,743,514.37l-43.75-75.78-53-91.7-45.8-79.34c-7.41-12.84-14.34-26.15-22.32-38.66a6.22,6.22,0,0,1-.32-.56c-4.86-8.41-17.91-.82-13,7.62L583,267.5l43.75,75.78,53,91.71,45.8,79.33c7.41,12.84,14.34,26.16,22.32,38.66.11.18.22.37.32.56,4.86,8.41,17.91.82,13-7.62Z" transform="translate(-298.58 -111.49)"/><path class="cls-1" d="M455.74,778.66H359.23c-9.72,0-9.73,15.09,0,15.09h96.51c9.71,0,9.72-15.09,0-15.09Z" transform="translate(-298.58 -111.49)"/><path class="cls-1" d="M931.24,697.78l-59.7,71.15L863,779.17c-6.21,7.39,4.42,18.12,10.67,10.67l59.7-71.14,8.59-10.24c6.2-7.4-4.42-18.13-10.67-10.68Z" transform="translate(-298.58 -111.49)"/><path class="cls-1" d="M836.64,697.25,776.46,769l-8.55,10.2c-6.21,7.39,4.41,18.12,10.67,10.67l60.18-71.73,8.56-10.19c6.2-7.39-4.42-18.13-10.68-10.67Z" transform="translate(-298.58 -111.49)"/><path class="cls-1" d="M848.5,698.78l-40.83-72.69-5.79-10.31c-4.76-8.47-17.8-.87-13,7.62l40.82,72.68,5.79,10.31c4.76,8.47,17.8.87,13-7.61Z" transform="translate(-298.58 -111.49)"/><path class="cls-1" d="M795.37,612H551.93c-9.71,0-9.73,15.09,0,15.09H795.37c9.71,0,9.72-15.09,0-15.09Z" transform="translate(-298.58 -111.49)"/><path class="cls-1" d="M754.7,542.19H592.26c-9.71,0-9.73,15.09,0,15.09H754.7c9.71,0,9.73-15.09,0-15.09Z" transform="translate(-298.58 -111.49)"/><path class="cls-1" d="M462.25,790l42.1-72.92,6-10.39c4.86-8.42-8.17-16-13-7.61L455.21,772l-6,10.38c-4.87,8.43,8.17,16,13,7.62Z" transform="translate(-298.58 -111.49)"/><path class="cls-1" d="M651.85,545.92,586.43,432.61l-9.14-15.83c-4.86-8.41-17.91-.82-13,7.62l65.42,113.31,9.15,15.83c4.85,8.41,17.9.82,13-7.62Z" transform="translate(-298.58 -111.49)"/><path class="cls-1" d="M779.76,780.7l-40.17-71.52-5.67-10.1c-4.76-8.47-17.8-.87-13,7.62l40.16,71.51,5.68,10.1c4.75,8.47,17.8.87,13-7.61Z" transform="translate(-298.58 -111.49)"/><path class="cls-1" d="M790.68,614.48,730.16,686.6,721.42,697c-6.21,7.39,4.42,18.13,10.67,10.67l60.52-72.12,8.74-10.42c6.21-7.39-4.42-18.12-10.67-10.67Z" transform="translate(-298.58 -111.49)"/><path class="cls-1" d="M727.4,695.34H503.83c-9.71,0-9.73,15.09,0,15.09H727.4c9.71,0,9.73-15.1,0-15.1Z" transform="translate(-298.58 -111.49)"/><path class="cls-1" d="M312.68,695.23l26.41-45.73,63.4-109.81,76.43-132.38,66.29-114.82c10.71-18.55,22.13-36.86,32.2-55.77.14-.26.29-.51.44-.77,4.87-8.43-8.17-16-13-7.62l-26.41,45.74L475,383.88,398.59,516.25l-66.3,114.83c-10.7,18.55-22.12,36.86-32.19,55.76-.14.27-.3.52-.45.78-4.86,8.42,8.17,16,13,7.61Z" transform="translate(-298.58 -111.49)"/><path class="cls-1" d="M365.74,782.08,319.31,699.4l-6.63-11.78c-4.75-8.47-17.8-.87-13,7.61l46.44,82.68,6.62,11.79c4.76,8.47,17.8.87,13-7.62Z" transform="translate(-298.58 -111.49)"/><path class="cls-1" d="M365.74,790l21.11-36.49,50.44-87.16,61-105.42,53-91.53c8.54-14.75,17.69-29.3,25.67-44.37.12-.22.25-.43.38-.64,4.87-8.43-8.17-16-13-7.62l-21.11,36.49-50.43,87.16-61,105.41-53,91.54c-8.54,14.75-17.69,29.3-25.68,44.37-.11.22-.25.43-.37.64-4.88,8.42,8.16,16,13,7.62Z" transform="translate(-298.58 -111.49)"/><path class="cls-1" d="M558.45,623.4,617.1,521.8l8.21-14.22c4.87-8.42-8.17-16-13-7.62l-58.66,101.6-8.21,14.22c-4.86,8.43,8.18,16,13,7.62Z" transform="translate(-298.58 -111.49)"/><path class="cls-1" d="M868.28,777h-95c-9.71,0-9.73,15.09,0,15.09h95c9.72,0,9.73-15.09,0-15.09Z" transform="translate(-298.58 -111.49)"/><path class="cls-1" d="M654.05,198.19l-41.14-72.53-5.84-10.29c-4.79-8.45-17.83-.85-13,7.62l41.14,72.53L641,205.8c4.79,8.45,17.84.86,13-7.61Z" transform="translate(-298.58 -111.49)"/><path class="cls-1" d="M647.53,194.45H553.59c-9.72,0-9.73,15.09,0,15.09h93.94c9.71,0,9.73-15.09,0-15.09Z" transform="translate(-298.58 -111.49)"/><path class="cls-1" d="M505.59,292.6l-41.5-71.89-5.89-10.2c-4.86-8.41-17.9-.81-13,7.62L486.67,290l5.89,10.2c4.85,8.41,17.9.82,13-7.62Z" transform="translate(-298.58 -111.49)"/><path class="cls-1" d="M560.1,198.19,519.28,125.5l-5.79-10.31c-4.76-8.47-17.8-.87-13,7.62l40.83,72.69,5.79,10.3c4.76,8.47,17.8.87,13-7.61Z" transform="translate(-298.58 -111.49)"/><path class="cls-1" d="M642.19,196.66,616.9,226.81c-6.21,7.39,4.42,18.12,10.67,10.67l25.3-30.15c6.2-7.39-4.42-18.12-10.68-10.67Z" transform="translate(-298.58 -111.49)"/><path class="cls-1" d="M600.56,111.63H506.61c-9.71,0-9.72,15.09,0,15.09h93.95c9.71,0,9.73-15.09,0-15.09Z" transform="translate(-298.58 -111.49)"/><path class="cls-1" d="M505.59,300.22l47.79-82.76,6.72-11.66c4.87-8.42-8.17-16-13-7.61L499.29,281l-6.73,11.65c-4.87,8.43,8.17,16,13,7.62Z" transform="translate(-298.58 -111.49)"/><path class="cls-1" d="M458.2,218.13l48.05-83.23L513.13,123c4.87-8.43-8.17-16-13-7.62L452,198.6l-6.87,11.91c-4.87,8.43,8.17,16,13,7.62Z" transform="translate(-298.58 -111.49)"/></svg>