<svg xmlns="http://www.w3.org/2000/svg" xmlns:xlink="http://www.w3.org/1999/xlink" viewBox="0 0 724.27 64.3"><defs><style>.cls-1{fill:none;}.cls-2{clip-path:url(#clip-path);}.cls-3{fill:#789ec5;}</style><clipPath id="clip-path" transform="translate(0)"><rect class="cls-1" width="724.27" height="64.3"/></clipPath></defs><title>c1logo_color</title><g id="Layer_2" data-name="Layer 2"><g id="Layer_1-2" data-name="Layer 1"><g id="Artwork_107" data-name="Artwork 107"><g class="cls-2"><g class="cls-2"><path class="cls-3" d="M610.69,39.82c0,14.77-9.68,24.45-24.36,24.45-15.27,0-24.75-9.68-24.75-25,0-14.47,9.68-23.86,24.55-23.86,15.17,0,24.56,9.39,24.56,24.46m-40.34-.3c0,11,6.3,18.26,15.78,18.26s15.77-7,15.77-17.85c0-5.21-1-8.7-3.29-11.89a14.63,14.63,0,0,0-12.31-6.15c-9.56,0-15.95,7.15-15.95,17.63" transform="translate(0)"/><path class="cls-3" d="M632.22,25.73c1.81-6.58,7.7-10.29,16.23-10.29,10.77,0,16.8,5.2,16.8,14.59V57h8.09v5.87h-25V57h8.83V33.09A11,11,0,0,0,646.58,22c-8.34-.2-13.6,5.55-13.6,14.67V57H641v5.87h-25.7V57h8.8V22.52h-8.8V16.64h16.93Z" transform="translate(0)"/><path class="cls-3" d="M723.56,48.21A16.18,16.18,0,0,1,721,54.92q-5.61,8.19-18.49,8.18c-9.23,0-15.22-2.67-19.52-8.8a23.63,23.63,0,0,1-4.13-14.08c0-15,8.71-24,23.18-24,11.29,0,18.47,5,21.07,14.36a34.72,34.72,0,0,1,1.14,11H687.06c.3,9.23,6.42,15.39,15.81,15.39,7.08,0,12.16-3.27,13.41-8.73Zm-7-12.49c-.49-8.57-5.9-13.85-14.47-13.85S688,27,686.74,35.72Z" transform="translate(0)"/><path class="cls-3" d="M102.81,39.82c0,14.77-9.68,24.45-24.34,24.45-15.29,0-24.77-9.68-24.77-25,0-14.47,9.68-23.86,24.63-23.86,15.11,0,24.48,9.39,24.48,24.46m-40.32-.3c0,11,6.29,18.26,15.78,18.26S94,50.79,94,39.93c0-5.21-1-8.7-3.29-11.89a14.63,14.63,0,0,0-12.39-6.15c-9.48,0-15.87,7.15-15.87,17.63" transform="translate(0)"/><path class="cls-3" d="M124.82,27c1-6.9,6.78-11.59,14.53-11.59a15.9,15.9,0,0,1,3.82.51v7.4a6.49,6.49,0,0,0-4.62-1.54,12.94,12.94,0,0,0-9.26,3.94c-3.08,3-4.47,7.37-4.47,13.36V57h10.29v5.87H107.94V57h8.8V22.52h-8.8V16.64h16.93Z" transform="translate(0)"/><path class="cls-3" d="M165.21,27c1-6.9,6.77-11.59,14.51-11.59a15.57,15.57,0,0,1,3.84.51v7.4a6.5,6.5,0,0,0-4.62-1.54,12.93,12.93,0,0,0-9.37,3.89c-3.08,3-4.39,7.38-4.39,13.36V57h10.28v5.87H148.31V57h8.82V22.52h-8.82V16.64h16.93Z" transform="translate(0)"/><path class="cls-3" d="M232.56,48.21A16.17,16.17,0,0,1,230,54.92q-5.59,8.19-18.49,8.18c-9.23,0-15.24-2.67-19.54-8.8a23.74,23.74,0,0,1-4.18-14c0-15,8.72-24,23.18-24,11.3,0,18.47,5,21.06,14.36a34.16,34.16,0,0,1,1.15,11H196.07c.29,9.24,6.42,15.39,15.81,15.39,7.08,0,12.16-3.26,13.4-8.72Zm-6.95-12.49c-.51-8.57-5.9-13.85-14.49-13.85S197,27,195.73,35.72Z" transform="translate(0)"/><polygon class="cls-3" points="254.77 57.02 262.85 57.02 262.85 62.89 237.89 62.89 237.89 57.02 245.97 57.02 245.97 7.09 237.89 7.09 237.89 0.49 254.82 0.49 254.77 57.02"/><path class="cls-3" d="M269.76,29.86c1.19-10,7.58-14.58,20.44-14.58q11.07,0,15.86,4.79c2.87,2.89,3.78,6.16,3.78,13.18V57h8.76v5.87H302.5V53.21c-2.83,7.59-8.5,10.88-18.25,10.88-11.33,0-17.93-5.19-17.93-14.18,0-6.08,3.07-10.48,8.8-13,3.57-1.54,9-2.2,17.51-2.2,1.27,0,3.47,0,9.13.2V33c.11-5-.6-7-2.69-8.77s-4.88-2.51-8.78-2.51c-7.37,0-11.35,2.8-11.86,8.1Zm23.92,11c-7.08,0-10.77.71-13.37,2.4a7.61,7.61,0,0,0-3.5,6.5c0,4.87,3.8,8,9.79,8,5.19,0,9.48-1.79,12.07-5.19,1.91-2.49,2.71-5.09,3.29-11.48-2.89-.2-4.79-.2-8.28-.2" transform="translate(0)"/><path class="cls-3" d="M334.81,49.7c0,3.35.18,4.62,1.15,5.72a4.79,4.79,0,0,0,3.83,1.79A4.54,4.54,0,0,0,344.32,54a20.85,20.85,0,0,0,.67-5.83h6.25c0,5.63-.38,7.91-1.83,10.28-2.21,3.46-5.77,5.14-10.86,5.14a12.36,12.36,0,0,1-8.07-2.57c-2.8-2.37-3.75-5.34-3.75-11.47V22.52h-9.55V16.64h9.55V3.08L334.81,0V16.64H350.2v5.88H334.81Z" transform="translate(0)"/><polygon class="cls-3" points="373.71 57.02 381.06 57.02 381.06 62.89 356.83 62.89 356.83 57.02 364.9 57.02 364.9 23.24 356.83 23.24 356.83 16.64 373.76 16.64 373.71 57.02"/><path class="cls-3" d="M435.72,39.82c0,14.77-9.68,24.45-24.34,24.45-15.27,0-24.77-9.68-24.77-25,0-14.47,9.68-23.86,24.63-23.86s24.48,9.39,24.48,24.46m-40.32-.3c0,11,6.3,18.26,15.78,18.26S427,50.79,427,39.93c0-5.21-1-8.7-3.29-11.89a14.63,14.63,0,0,0-12.39-6.15c-9.48,0-15.87,7.15-15.87,17.63" transform="translate(0)"/><path class="cls-3" d="M457.41,25.73c1.8-6.58,7.7-10.29,16.21-10.29,10.77,0,16.82,5.2,16.82,14.59V57h8.08v5.87h-25V57h8.08V33.09A11,11,0,0,0,471,22c-8.34-.2-13.61,5.55-13.61,14.67V57h8.81v5.87H440.53V57h8.8V22.52h-8.8V16.64h16.93Z" transform="translate(0)"/><path class="cls-3" d="M38.82,48.27a14.59,14.59,0,0,1-14.28,9.56,14.73,14.73,0,0,1-14.18-9.56,22.82,22.82,0,0,1-1.54-8.68,20.53,20.53,0,0,1,2.23-9.67,14.88,14.88,0,0,1,13.58-8,14.61,14.61,0,0,1,12.31,6.16,16.78,16.78,0,0,1,1.82,3.29h9.06c-3-10.39-11.83-16-23.28-16s-19.66,5.53-23,14.53A27.6,27.6,0,0,0,0,39.28a31.43,31.43,0,0,0,1.25,9c3.08,10,11.47,16,23.49,16,11.65,0,20.14-6.15,23.08-16Z" transform="translate(0)"/><path class="cls-3" d="M533.48,33.81a6.12,6.12,0,1,1-6.12,6.11,6.12,6.12,0,0,1,6.12-6.11" transform="translate(0)"/><path class="cls-3" d="M549,18.21a6.11,6.11,0,1,1-6.11,6.11A6.11,6.11,0,0,1,549,18.21" transform="translate(0)"/><path class="cls-3" d="M517.91,49.27a6.11,6.11,0,1,1-6.11,6.11,6.1,6.1,0,0,1,6.11-6.11" transform="translate(0)"/></g></g></g></g></g></svg>