<?xml version="1.0" encoding="UTF-8"?>
<svg width="338px" height="72px" viewBox="0 0 338 72" version="1.1" xmlns="http://www.w3.org/2000/svg" xmlns:xlink="http://www.w3.org/1999/xlink">
    <!-- Generator: Sketch 43.2 (39069) - http://www.bohemiancoding.com/sketch -->
    <title>Microsoft-logo_cmyk_c-gray</title>
    <desc>Created with Sketch.</desc>
    <defs>
        <polygon id="path-1" points="0 216 482 216 482 0 0 0"></polygon>
    </defs>
    <g id="Page-1" stroke="none" stroke-width="1" fill="none" fill-rule="evenodd">
        <g id="Microsoft-logo_cmyk_c-gray" transform="translate(-72.000000, -72.000000)">
            <path d="M394.9424,104.5891 L384.0844,104.5891 L384.0844,129.5931 L376.7044,129.5931 L376.7044,104.5891 L371.5224,104.5891 L371.5224,98.6241 L376.7044,98.6241 L376.7044,94.3161 C376.7044,91.0621 377.7634,88.3961 379.8824,86.3181 C382.0014,84.2391 384.7174,83.2001 388.0314,83.2001 C388.9144,83.2001 389.6984,83.2451 390.3814,83.3351 C391.0634,83.4261 391.6664,83.5621 392.1884,83.7421 L392.1884,90.0381 C391.9474,89.8981 391.5254,89.7271 390.9234,89.5261 C390.3204,89.3261 389.6274,89.2251 388.8454,89.2251 C387.3174,89.2251 386.1434,89.7021 385.3194,90.6561 C384.4954,91.6101 384.0844,93.0211 384.0844,94.8881 L384.0844,98.6241 L394.9424,98.6241 L394.9424,91.6651 L402.2634,89.4361 L402.2634,98.6241 L409.6444,98.6241 L409.6444,104.5891 L402.2634,104.5891 L402.2634,119.0791 C402.2634,120.9881 402.6094,122.3331 403.3024,123.1161 C403.9954,123.8991 405.0844,124.2911 406.5714,124.2911 C406.9924,124.2911 407.4994,124.1911 408.0924,123.9901 C408.6844,123.7891 409.2014,123.5491 409.6444,123.2671 L409.6444,129.2921 C409.1814,129.5531 408.4134,129.7941 407.3394,130.0151 C406.2654,130.2361 405.2054,130.3461 404.1614,130.3461 C401.0884,130.3461 398.7834,129.5291 397.2474,127.8911 C395.7104,126.2541 394.9424,123.7891 394.9424,120.4951 L394.9424,104.5891 Z M346.5354,114.3201 C346.5354,117.5531 347.2684,120.0231 348.7344,121.7311 C350.2004,123.4381 352.2994,124.2911 355.0304,124.2911 C357.6824,124.2911 359.7004,123.4381 361.0854,121.7311 C362.4714,120.0231 363.1644,117.4931 363.1644,114.1391 C363.1644,110.8051 362.4464,108.2901 361.0104,106.5921 C359.5744,104.8951 357.5604,104.0471 354.9704,104.0471 C352.2994,104.0471 350.2254,104.9351 348.7494,106.7131 C347.2734,108.4901 346.5354,111.0261 346.5354,114.3201 Z M338.9434,114.5601 C338.9434,109.4391 340.3894,105.3831 343.2814,102.3901 C346.1734,99.3971 350.1904,97.9011 355.3314,97.9011 C360.1724,97.9011 363.9524,99.3421 366.6744,102.2241 C369.3954,105.1071 370.7564,108.9981 370.7564,113.8981 C370.7564,118.9191 369.3094,122.9161 366.4184,125.8881 C363.5264,128.8611 359.5894,130.3461 354.6084,130.3461 C349.8084,130.3461 345.9974,128.9361 343.1764,126.1141 C340.3544,123.2931 338.9434,119.4411 338.9434,114.5601 Z M322.5264,106.7581 C322.5264,107.8031 322.8574,108.6211 323.5204,109.2141 C324.1824,109.8061 325.6484,110.5541 327.9184,111.4571 C330.8304,112.6231 332.8744,113.9331 334.0494,115.3891 C335.2244,116.8451 335.8114,118.6081 335.8114,120.6761 C335.8114,123.5881 334.6914,125.9281 332.4524,127.6951 C330.2124,129.4631 327.1854,130.3461 323.3694,130.3461 C322.0844,130.3461 320.6634,130.1911 319.1064,129.8791 C317.5504,129.5681 316.2294,129.1721 315.1454,128.6891 L315.1454,121.5201 C316.4714,122.4441 317.8964,123.1761 319.4234,123.7181 C320.9494,124.2611 322.3344,124.5321 323.5804,124.5321 C325.2274,124.5321 326.4424,124.3011 327.2254,123.8391 C328.0094,123.3781 328.4004,122.6041 328.4004,121.5201 C328.4004,120.5151 327.9944,119.6671 327.1804,118.9741 C326.3674,118.2811 324.8254,117.4821 322.5564,116.5791 C319.8654,115.4541 317.9574,114.1891 316.8324,112.7831 C315.7074,111.3771 315.1454,109.5901 315.1454,107.4211 C315.1454,104.6291 316.2544,102.3351 318.4744,100.5371 C320.6924,98.7401 323.5704,97.8411 327.1054,97.8411 C328.1894,97.8411 329.4054,97.9611 330.7504,98.2021 C332.0964,98.4441 333.2204,98.7551 334.1244,99.1361 L334.1244,106.0651 C333.1604,105.4221 332.0354,104.8711 330.7504,104.4081 C329.4644,103.9461 328.1894,103.7151 326.9244,103.7151 C325.5384,103.7151 324.4594,103.9861 323.6864,104.5281 C322.9124,105.0711 322.5264,105.8141 322.5264,106.7581 Z M287.4604,114.3201 C287.4604,117.5531 288.1934,120.0231 289.6604,121.7311 C291.1254,123.4381 293.2244,124.2911 295.9554,124.2911 C298.6074,124.2911 300.6254,123.4381 302.0104,121.7311 C303.3964,120.0231 304.0894,117.4931 304.0894,114.1391 C304.0894,110.8051 303.3714,108.2901 301.9354,106.5921 C300.4994,104.8951 298.4864,104.0471 295.8964,104.0471 C293.2244,104.0471 291.1514,104.9351 289.6744,106.7131 C288.1984,108.4901 287.4604,111.0261 287.4604,114.3201 Z M279.8684,114.5601 C279.8684,109.4391 281.3144,105.3831 284.2064,102.3901 C287.0994,99.3971 291.1154,97.9011 296.2574,97.9011 C301.0974,97.9011 304.8784,99.3421 307.5994,102.2241 C310.3204,105.1071 311.6814,108.9981 311.6814,113.8981 C311.6814,118.9191 310.2354,122.9161 307.3434,125.8881 C304.4514,128.8611 300.5154,130.3461 295.5344,130.3461 C290.7334,130.3461 286.9234,128.9361 284.1014,126.1141 C281.2794,123.2931 279.8684,119.4411 279.8684,114.5601 Z M276.7324,98.1121 C277.3144,98.1121 277.8374,98.1531 278.2994,98.2331 C278.7614,98.3131 279.1524,98.4131 279.4744,98.5341 L279.4744,105.9141 C279.0924,105.6331 278.5354,105.3681 277.8024,105.1161 C277.0694,104.8651 276.1804,104.7401 275.1364,104.7401 C273.3484,104.7401 271.8374,105.4931 270.6024,106.9991 C269.3674,108.5051 268.7494,110.8251 268.7494,113.9581 L268.7494,129.5931 L261.4584,129.5931 L261.4584,98.6241 L268.7494,98.6241 L268.7494,103.5041 L268.8694,103.5041 C269.5324,101.8171 270.5364,100.4971 271.8824,99.5431 C273.2284,98.5901 274.8444,98.1121 276.7324,98.1121 Z M248.7764,124.2911 C249.8604,124.2911 251.0554,124.0411 252.3614,123.5381 C253.6664,123.0361 254.8714,122.3741 255.9764,121.5501 L255.9764,128.3281 C254.8114,128.9911 253.4914,129.4931 252.0144,129.8341 C250.5394,130.1761 248.9164,130.3461 247.1494,130.3461 C242.5904,130.3461 238.8844,128.9061 236.0334,126.0231 C233.1814,123.1421 231.7554,119.4611 231.7554,114.9831 C231.7554,110.0021 233.2114,105.9001 236.1244,102.6761 C239.0354,99.4521 243.1624,97.8411 248.5054,97.8411 C249.8714,97.8411 251.2514,98.0171 252.6484,98.3681 C254.0434,98.7201 255.1524,99.1261 255.9764,99.5881 L255.9764,106.5771 C254.8514,105.7541 253.7024,105.1161 252.5264,104.6641 C251.3524,104.2131 250.1514,103.9861 248.9274,103.9861 C246.0554,103.9861 243.7354,104.9201 241.9684,106.7881 C240.2004,108.6561 239.3164,111.1761 239.3164,114.3501 C239.3164,117.4821 240.1654,119.9231 241.8624,121.6701 C243.5594,123.4181 245.8644,124.2911 248.7764,124.2911 Z M219.3744,129.5931 L226.6644,129.5931 L226.6644,98.6241 L219.3744,98.6241 L219.3744,129.5931 Z M218.6204,89.6771 C218.6204,88.4721 219.0574,87.4631 219.9314,86.6491 C220.8054,85.8361 221.8444,85.4291 223.0494,85.4291 C224.3344,85.4291 225.3994,85.8461 226.2424,86.6791 C227.0864,87.5131 227.5084,88.5121 227.5084,89.6771 C227.5084,90.8621 227.0764,91.8561 226.2124,92.6591 C225.3484,93.4631 224.2944,93.8641 223.0494,93.8641 C221.8034,93.8641 220.7544,93.4581 219.9014,92.6451 C219.0474,91.8301 218.6204,90.8421 218.6204,89.6771 Z M212.3474,86.3931 L212.3474,129.5931 L204.8464,129.5931 L204.8464,95.7321 L204.7264,95.7321 L191.3194,129.5931 L186.3494,129.5931 L172.6114,95.7321 L172.5214,95.7321 L172.5214,129.5931 L165.5924,129.5931 L165.5924,86.3931 L176.3474,86.3931 L188.7594,118.4171 L188.9394,118.4171 L202.0444,86.3931 L212.3474,86.3931 Z" id="Fill-1" fill="#6D6E6C"></path>
            <mask id="mask-2" fill="white">
                <use xlink:href="#path-1"></use>
            </mask>
            <g id="Clip-4"></g>
            <polygon id="Fill-3" fill="#E15D29" mask="url(#mask-2)" points="71.996 106.214 106.214 106.214 106.214 71.996 71.996 71.996"></polygon>
            <polygon id="Fill-5" fill="#84BF41" mask="url(#mask-2)" points="109.775 106.214 143.993 106.214 143.993 71.996 109.775 71.996"></polygon>
            <polygon id="Fill-6" fill="#00A3DB" mask="url(#mask-2)" points="71.996 143.993 106.214 143.993 106.214 109.775 71.996 109.775"></polygon>
            <polygon id="Fill-7" fill="#F6BC25" mask="url(#mask-2)" points="109.775 143.993 143.993 143.993 143.993 109.775 109.775 109.775"></polygon>
        </g>
    </g>
</svg>