<svg xmlns="http://www.w3.org/2000/svg" viewBox="0 0 202.25 158.08"><defs><style>.cls-1{fill:#1f55a6;}.cls-2{fill:#f9a13e;}.cls-3{fill:#7f2887;}.cls-4{fill:#f0ea4c;}.cls-5{fill:#108642;}.cls-6{fill:#464547;}</style></defs><g id="Layer_2" data-name="Layer 2"><g id="Layer_2-2" data-name="Layer 2"><path class="cls-1" d="M115.28,65.38H46.45c-2.42,0-3.92,1.4-4.48,4.19l-2,10.2q-.55,3.92,3.64,3.92h68.27c3,0,4.66-1.31,5-3.92l2-10.2C119.48,66.78,118.26,65.38,115.28,65.38Z"/><path class="cls-2" d="M55.4,18.31h68.83c2.8,0,4.47-1.31,5-3.92l2-10.21c.55-2.78-.56-4.18-3.36-4.18H58.48a4.67,4.67,0,0,0-5,4.18L51.76,14.39Q50.94,18.31,55.4,18.31Z"/><path class="cls-3" d="M72.47,87.35H42.81q-4.2,0-5,3.93l-2,10.19q-.56,3.93,3.64,3.93H68.83q4.48,0,5.32-3.93l1.68-10.19C76.39,88.66,75.26,87.35,72.47,87.35Z"/><path class="cls-4" d="M162.57,22H93.46c-3,0-4.77,1.31-5.32,3.92l-1.68,10.2Q85.62,40,90.09,40h68.84q4.2,0,5-3.93l2-10.2C166.49,23.28,165.36,22,162.57,22Z"/><path class="cls-5" d="M158.37,43.68h-108q-3.93,0-4.21,3.92L44.21,57.8C43.65,60.59,44.59,62,47,62H155a4.65,4.65,0,0,0,5-4.18l2-10.2Q162.28,43.69,158.37,43.68Z"/><path class="cls-6" d="M0,136.38H8.12c4.9,0,8.13,2.6,8.13,6.88v.06c0,4.68-3.91,7.1-8.53,7.1H2.45v7.66H0Zm7.81,11.81c3.6,0,6-1.92,6-4.78v-.06c0-3.1-2.33-4.71-5.83-4.71H2.45v9.55Z"/><path class="cls-6" d="M26.91,136.38h9.33a8.52,8.52,0,0,1,6.17,2.17,6,6,0,0,1,1.68,4.27v.07c0,3.59-2.48,5.7-5.9,6.32l6.67,8.87h-3l-6.29-8.43h-6.2v8.43H26.91ZM36,147.44c3.26,0,5.59-1.67,5.59-4.46v-.06c0-2.67-2-4.28-5.56-4.28H29.36v8.8Z"/><path class="cls-6" d="M55.52,136.38H71.21v2.23H58V146H69.82v2.23H58v7.6h13.4v2.23H55.52Z"/><path class="cls-6" d="M82.49,136.38H85l7.91,11.84,7.9-11.84h2.48v21.7h-2.45V140.5l-7.9,11.63h-.13l-7.9-11.6v17.55H82.49Z"/><path class="cls-6" d="M115.82,136.38h2.45v21.7h-2.45Z"/><path class="cls-6" d="M130.82,136.38h15.69v2.23H133.27V146h11.84v2.23H133.27v7.6h13.39v2.23H130.82Z"/><path class="cls-6" d="M157.79,136.38h9.33a8.52,8.52,0,0,1,6.17,2.17,6,6,0,0,1,1.68,4.27v.07c0,3.59-2.48,5.7-5.89,6.32l6.66,8.87h-3l-6.29-8.43h-6.2v8.43h-2.45Zm9.12,11.06c3.25,0,5.58-1.67,5.58-4.46v-.06c0-2.67-2.05-4.28-5.55-4.28h-6.7v8.8Z"/><path class="cls-6" d="M186.4,136.38h15.69v2.23H188.85V146H200.7v2.23H188.85v7.6h13.4v2.23H186.4Z"/></g></g></svg>